HIERARCHY
ROOT ui
{
	 OFFSET 0 0 0
	 CHANNELS 3 XPosition YPosition Z Position
	 EndSite
	 {
	 OFFSET 0 -1 0
	 }
}
ROOT li
{
	 OFFSET 0 0 0
	 CHANNELS 3 XPosition YPosition Z Position
	 EndSite
	 {
	 OFFSET 0 -1 0
	 }
}
ROOT ul
{
	 OFFSET 0 0 0
	 CHANNELS 3 XPosition YPosition Z Position
	 EndSite
	 {
	 OFFSET 0 -1 0
	 }
}
ROOT ll
{
	 OFFSET 0 0 0
	 CHANNELS 3 XPosition YPosition Z Position
	 EndSite
	 {
	 OFFSET 0 -1 0
	 }
}
ROOT tt
{
	 OFFSET 0 0 0
	 CHANNELS 3 XPosition YPosition Z Position
	 EndSite
	 {
	 OFFSET 0 -1 0
	 }
}
ROOT tb
{
	 OFFSET 0 0 0
	 CHANNELS 3 XPosition YPosition Z Position
	 EndSite
	 {
	 OFFSET 0 -1 0
	 }
}
ROOT td
{
	 OFFSET 0 0 0
	 CHANNELS 3 XPosition YPosition Z Position
	 EndSite
	 {
	 OFFSET 0 -1 0
	 }
}
ROOT v
{
	 OFFSET 0 0 0
	 CHANNELS 3 XPosition YPosition Z Position
	 EndSite
	 {
	 OFFSET 0 -1 0
	 }
}
ROOT bn
{
	 OFFSET 0 0 0
	 CHANNELS 3 XPosition YPosition Z Position
	 EndSite
	 {
	 OFFSET 0 -1 0
	 }
}
MOTION
Frames: 21
Frame Time: 0.002
-0.010843460083007812	-7.624379992485046E-4	0		0.42859066772460935	-2.311224609375	0		-0.9508068237304688	0.3775943298339844	0		-0.4157923278808594	-2.880550048828125	0		1.666377197265625	-0.4921398620605469	0		2.930580810546875	0.30837966918945314	0		4.12132177734375	0.4670103759765625	0		5.9137373046875	0.38585098266601564	0		-0.3271840209960937	5.87616796875	0		
-0.0077237730026245115	0.0023089749813079833	0		0.48057095336914063	-2.31695068359375	0		-0.9716998291015625	0.38005780029296876	0		-0.41775668334960936	-2.88239599609375	0		1.77351513671875	-0.4887643127441406	0		2.920865234375	0.32165811157226565	0		4.11750830078125	0.4741905517578125	0		5.91795068359375	0.368581298828125	0		-0.3422506713867188	5.86753466796875	0		
-0.010716160774230958	-5.230320096015931E-4	0		0.425047119140625	-2.289925537109375	0		-0.9757066040039063	0.3762467346191406	0		-0.42076260375976565	-2.88522607421875	0		1.763374755859375	-0.5004894409179688	0		2.911630859375	0.303912109375	0		4.11266455078125	0.48037060546875	0		5.90579736328125	0.3588388366699219	0		-0.34315066528320315	5.86867138671875	0		
-0.010680096626281738	-4.0643998980522154E-4	0		0.4745199890136719	-2.323623046875	0		-0.9488014526367188	0.3679322204589844	0		-0.4149953918457031	-2.900201904296875	0		1.757277099609375	-0.5082885131835938	0		2.925846923828125	0.3147751770019531	0		4.108607421875	0.47451947021484375	0		5.920787109375	0.3566346435546875	0		-0.34208303833007814	5.8677744140625	0		
-0.010666384696960449	-2.922669947147369E-4	0		0.43043124389648435	-2.327796142578125	0		-0.9888270874023437	0.3657099914550781	0		-0.41501507568359375	-2.900083251953125	0		1.7511552734375	-0.5160957641601562	0		2.9258642578125	0.31485552978515624	0		4.116837890625	0.4874540100097656	0		5.90583203125	0.35903570556640624	0		-0.34200177001953125	5.86789208984375	0		
0.014305210113525391	-0.001588683009147644	0		0.48536480712890623	-2.329588623046875	0		-0.9888305053710937	0.36583584594726565	0		-0.41506625366210936	-2.899965576171875	0		1.7480740966796875	-0.51996044921875	0		2.923089111328125	0.32897125244140624	0		4.1129345703125	0.49356967163085935	0		5.91594970703125	0.3794402160644531	0		-0.3277469482421875	5.87877880859375	0		
-0.010705341339111328	-7.179100066423416E-5	0		0.45829751586914064	-2.329047119140625	0		-0.9587929077148437	0.3694710693359375	0		-0.4151470947265625	-2.899849609375	0		1.7480347900390625	-0.5198822631835938	0		2.91083740234375	0.31522689819335936	0		4.11701025390625	0.4995404052734375	0		5.91592724609375	0.37944873046875	0		-0.34185235595703123	5.86812353515625	0		
-0.010755670547485352	3.462500125169754E-5	0		0.4821156005859375	-2.334342041015625	0		-0.9720140991210937	0.35881060791015623	0		-0.40646929931640624	-2.912880615234375	0		1.734714111328125	-0.53559619140625	0		2.93100341796875	0.3279459228515625	0		4.10798779296875	0.50071142578125	0		5.9085380859375	0.3468444213867187	0		-0.341785400390625	5.868236328125	0		
-0.010823667526245117	1.387930065393448E-4	0		0.45401611328125	-2.332790283203125	0		-0.97613916015625	0.35500210571289065	0		-0.4106503601074219	-2.915701904296875	0		1.7254388427734375	-0.5473815307617188	0		2.88594873046875	0.3287222900390625	0		4.10102978515625	0.5068383483886719	0		5.90364794921875	0.36948248291015623	0		-0.34172357177734375	5.86834814453125	0		
-0.010904574394226074	2.409760057926178E-4	0		0.4866455078125	-2.34723876953125	0		-0.981276611328125	0.3512098693847656	0		-0.3989499816894531	-2.924785888671875	0		1.7253448486328125	-0.5473207397460937	0		2.895989013671875	0.33559048461914065	0		4.1009609375	0.5068426513671875	0		5.90843017578125	0.34672906494140626	0		-0.3265191345214844	5.87721044921875	0		
-0.035987144470214845	7.522159814834595E-4	0		0.4744861145019531	-2.347953369140625	0		-0.9394415893554687	0.34564501953125	0		-0.3831768798828125	-2.92893798828125	0		1.722179931640625	-0.5512138061523437	0		2.9027626953125	0.32650448608398436	0		4.0939873046875	0.51295458984375	0		5.91482177734375	0.351579345703125	0		-0.312312255859375	5.886087890625	0		
0.07100056457519531	0.004089867115020752	0		0.49044229125976563	-2.34213134765625	0		-0.8685389404296875	0.3435991821289063	0		-0.39314981079101563	-2.917666748046875	0		1.722085693359375	-0.5511596069335938	0		2.91900146484375	0.3452624816894531	0		4.1002490234375	0.532846435546875	0		5.90624072265625	0.3570166931152344	0		-0.3122412109375	5.8861943359375	0		
-0.011134040832519532	5.369120240211486E-4	0		0.4862360534667969	-2.34698095703125	0		-0.891755126953125	0.3340987854003906	0		-0.3983873596191406	-2.923476806640625	0		1.7028621826171875	-0.55979345703125	0		2.865789306640625	0.3361580810546875	0		4.07633447265625	0.5412307739257812	0		5.896994140625	0.36766604614257814	0		-0.3404609069824219	5.8677626953125	0		
0.013806384086608886	-7.816259860992432E-4	0		0.4830530700683594	-2.351849609375	0		-0.890934814453125	0.3252005310058594	0		-0.396470458984375	-2.92140576171875	0		1.6966766357421874	-0.5676439208984375	0		2.88075634765625	0.33592953491210936	0		4.076308837890625	0.5412183837890625	0		5.90409716796875	0.36727590942382815	0		-0.34034765625	5.86786572265625	0		
-0.01425173282623291	-0.0032283999919891357	0		0.4918465576171875	-2.359919677734375	0		-0.8990699462890624	0.3174470520019531	0		-0.39452532958984377	-2.9193388671875	0		1.69946728515625	-0.5786456298828125	0		2.880752685546875	0.33594537353515624	0		4.076310546875	0.541203369140625	0		5.89744482421875	0.33455935668945314	0		-0.326045166015625	5.8777314453125	0		
0.06378742599487305	-0.0024343230724334715	0		0.49586968994140623	-2.3559130859375	0		-0.9591859741210937	0.30955038452148437	0		-0.36780099487304685	-2.9326884765625	0		1.6994696044921875	-0.5786026000976563	0		2.871177001953125	0.3601210021972656	0		4.063104736328125	0.587412109375	0		5.9020302734375	0.37752227783203124	0		-0.31075	5.885576171875	0		
-0.011124602317810059	8.889449834823609E-4	0		0.4880408020019531	-2.344712646484375	0		-0.8872930908203125	0.2994618225097656	0		-0.38745974731445315	-2.910269775390625	0		1.6964342041015625	-0.58251220703125	0		2.858016357421875	0.3473501281738281	0		4.063163330078125	0.58739501953125	0		5.9025498046875	0.34452066040039064	0		-0.31154638671875	5.88668115234375	0		
0.01392139720916748	-4.4918599724769594E-4	0		0.4829374694824219	-2.351563232421875	0		-0.900417724609375	0.28777642822265626	0		-0.38542752075195313	-2.908217529296875	0		1.6934208984375	-0.586424072265625	0		2.87928662109375	0.35901080322265627	0		4.063242919921875	0.5873785400390625	0		5.897080078125	0.37232427978515625	0		-0.3376905517578125	5.86619970703125	0		
-0.010980664253234863	0.00103862202167511	0		0.5068949890136719	-2.355899658203125	0		-0.902532958984375	0.2759031677246094	0		-0.3854121398925781	-2.908136962890625	0		1.6804879150390626	-0.5861717529296875	0		2.84937646484375	0.3595203552246094	0		4.063333251953125	0.5873637084960938	0		5.896232421875	0.3445823974609375	0		-0.3253053894042969	5.87707861328125	0		
-0.013967514038085938	-0.0028420739173889162	0		0.48299755859375	-2.351442138671875	0		-0.96665576171875	0.2640570373535156	0		-0.3782582092285156	-2.90017822265625	0		1.6833720703125	-0.5971848754882813	0		2.849462890625	0.3595325012207031	0		4.05242578125	0.5875349731445313	0		5.8914384765625	0.36545703125	0		-0.3241264343261719	5.87613671875	0		
-0.010829538345336913	0.0011726479530334473	0		0.4959587097167969	-2.355601806640625	0		-0.8847739868164063	0.25177415466308595	0		-0.37008950805664065	-2.8912412109375	0		1.6992642822265625	-0.6074153442382813	0		2.862422607421875	0.3523307495117188	0		4.048708740234375	0.5995924072265625	0		5.89910791015625	0.3322037353515625	0		-0.3048853454589844	5.879890625	0		
